<?xml version="1.0" encoding="UTF-8" standalone="no"?>
<svg
   xmlns:dc="http://purl.org/dc/elements/1.1/"
   xmlns:cc="http://creativecommons.org/ns#"
   xmlns:rdf="http://www.w3.org/1999/02/22-rdf-syntax-ns#"
   xmlns:svg="http://www.w3.org/2000/svg"
   xmlns="http://www.w3.org/2000/svg"
   viewBox="0 0 4502.7378 4469.5786"
   height="4469.5786"
   width="4502.7378"
   xml:space="preserve"
   id="svg2"
   version="1.1"><metadata
     id="metadata8"><rdf:RDF><cc:Work
         rdf:about=""><dc:format>image/svg+xml</dc:format><dc:type
           rdf:resource="http://purl.org/dc/dcmitype/StillImage" /></cc:Work></rdf:RDF></metadata><defs
     id="defs6"><clipPath
       id="clipPath18"
       clipPathUnits="userSpaceOnUse"><path
         id="path16"
         d="M 0,4053.54 H 5102.36 V 0 H 0 Z" /></clipPath></defs><g
     transform="matrix(1.3333333,0,0,-1.3333333,-1141.5188,4990.8428)"
     id="g10"><g
       id="g12"><g
         clip-path="url(#clipPath18)"
         id="g14"><g
           transform="translate(901.8031,2403.8359)"
           id="g20"><path
             id="path22"
             style="fill:#000;fill-opacity:1;fill-rule:nonzero;stroke:none"
             d="m 0,0 c 3.298,-44.329 5.134,-69.392 5.504,-75.192 0.371,-5.798 0.553,-10.359 0.546,-13.683 4.975,10.844 18.314,37.45 40.019,79.819 z m -5.277,85.26 3.38,-48.871 64.449,-12.67 22.254,43.832 40.387,-7.94 -102.204,-183.26 -45.828,9.009 -22.825,207.839 z" /></g><g
           transform="translate(1638.35,3355.5527)"
           id="g24"><path
             id="path26"
             style="fill:#000;fill-opacity:1;fill-rule:nonzero;stroke:none"
             d="m 0,0 -158.548,-121.936 -25.984,33.217 130.786,100.585 -49.705,63.541 27.762,21.352 z" /></g><g
           transform="translate(2706.6619,3619.0862)"
           id="g28"><path
             id="path30"
             style="fill:#000;fill-opacity:1;fill-rule:nonzero;stroke:none"
             d="m 0,0 -200.153,8.877 2.044,42.052 165.106,-7.323 3.911,80.44 35.048,-1.554 z" /></g><g
           transform="translate(3769.1509,3217.5349)"
           id="g32"><path
             id="path34"
             style="fill:#000;fill-opacity:1;fill-rule:nonzero;stroke:none"
             d="m 0,0 -79.779,-82.883 -144.794,136.744 79.779,82.883 25.156,-23.757 -50.407,-52.368 31.791,-30.023 46.901,48.726 25.156,-23.758 -46.901,-48.726 37.337,-35.261 50.407,52.367 z" /></g><g
           transform="translate(4232.7573,2200.9038)"
           id="g36"><path
             id="path38"
             style="fill:#000;fill-opacity:1;fill-rule:nonzero;stroke:none"
             d="m 0,0 c 2,-17.807 -2.894,-32.571 -14.684,-44.294 -11.789,-11.722 -29.218,-18.894 -52.283,-21.514 -21.251,-2.413 -40.494,-0.592 -57.73,5.466 l -4.365,38.852 c 14.106,-4.409 25.951,-7.3 35.533,-8.67 9.581,-1.371 18.231,-1.619 25.951,-0.741 9.264,1.052 16.171,3.612 20.728,7.682 4.555,4.07 6.444,9.566 5.665,16.492 -0.434,3.866 -1.91,7.182 -4.428,9.949 -2.518,2.764 -6.045,5.301 -10.581,7.61 -4.535,2.306 -13.641,5.781 -27.314,10.423 -12.807,4.283 -22.545,8.687 -29.214,13.213 -6.672,4.523 -12.213,10.042 -16.623,16.556 -4.41,6.512 -7.135,14.399 -8.176,23.664 -1.96,17.446 2.47,31.84 13.292,43.179 10.818,11.339 26.764,18.206 47.833,20.598 10.354,1.177 20.366,1.084 30.039,-0.277 9.671,-1.36 19.885,-3.663 30.643,-6.902 l -9.971,-34.059 c -11.109,3.11 -20.234,5.125 -27.373,6.045 -7.139,0.918 -14.07,0.998 -20.79,0.234 -7.992,-0.908 -13.915,-3.449 -17.769,-7.62 -3.855,-4.173 -5.446,-9.226 -4.78,-15.161 0.414,-3.689 1.638,-6.806 3.671,-9.352 2.033,-2.548 5.079,-4.888 9.136,-7.023 4.056,-2.135 13.496,-5.732 28.321,-10.787 19.606,-6.7 33.359,-14.087 41.256,-22.16 C -6.117,23.327 -1.445,12.86 0,0" /></g><g
           transform="translate(3885.8931,1027.6984)"
           id="g40"><path
             id="path42"
             style="fill:#000;fill-opacity:1;fill-rule:nonzero;stroke:none"
             d="M 0,0 -95.544,63.804 16.849,228.535 112.394,164.73 92.867,136.111 32.5,176.424 7.822,140.256 63.991,102.746 44.465,74.126 -11.705,111.636 -40.687,69.158 19.68,28.844 Z" /></g><g
           transform="translate(2858.3181,509.0032)"
           id="g44"><path
             id="path46"
             style="fill:#000;fill-opacity:1;fill-rule:nonzero;stroke:none"
             d="m 0,0 193.117,53.632 11.34,-40.528 -159.302,-44.24 21.691,-77.528 -33.815,-9.391 z" /></g><g
           transform="translate(1867.7743,587.2615)"
           id="g48"><path
             id="path50"
             style="fill:#000;fill-opacity:1;fill-rule:nonzero;stroke:none"
             d="m 0,0 -10.388,-22.204 c -4.848,-10.362 -6.742,-18.603 -5.684,-24.725 1.06,-6.122 5.318,-10.886 12.777,-14.292 6.962,-3.178 13.137,-2.928 18.53,0.748 5.39,3.677 10.646,10.985 15.762,21.922 l 9.407,20.107 z M -30.583,13.962 -77.949,35.585 -89.606,10.667 c -4.925,-10.526 -6.53,-19.224 -4.816,-26.095 1.713,-6.869 6.755,-12.216 15.128,-16.038 15.083,-6.886 27.628,0.362 37.631,21.743 z M 89.872,5.38 63.613,-50.747 c -11.965,-25.575 -24.318,-42.466 -37.059,-50.672 -12.74,-8.205 -27.11,-8.657 -43.105,-1.356 -10.858,4.958 -18.583,11.553 -23.179,19.789 -4.596,8.236 -5.636,16.87 -3.12,25.901 l -1.243,0.567 c -7.918,-10.256 -16.583,-16.307 -25.993,-18.149 -9.411,-1.842 -19.959,-0.095 -31.645,5.24 -16.578,7.568 -26.727,19.412 -30.449,35.532 -3.723,16.123 -0.813,34.379 8.728,54.774 l 31.568,67.475 z" /></g><g
           transform="translate(938.0447,1430.2362)"
           id="g52"><path
             id="path54"
             style="fill:#000;fill-opacity:1;fill-rule:nonzero;stroke:none"
             d="m 0,0 104.875,48.071 83.632,-180.12 -104.875,-48.07 -14.53,31.293 66.264,30.372 -18.363,39.548 -61.654,-28.26 -14.53,31.292 61.654,28.261 -21.566,46.446 -66.263,-30.372 z" /></g></g></g></g></svg>