<?xml version="1.0" encoding="utf-8"?>
<!-- Generator: Adobe Illustrator 18.0.0, SVG Export Plug-In . SVG Version: 6.00 Build 0)  -->
<!DOCTYPE svg PUBLIC "-//W3C//DTD SVG 1.1//EN" "http://www.w3.org/Graphics/SVG/1.1/DTD/svg11.dtd">
<svg version="1.1" id="Ebene_1" xmlns="http://www.w3.org/2000/svg" xmlns:xlink="http://www.w3.org/1999/xlink" x="0px" y="0px"
	 viewBox="0 0 2850.1 3422" enable-background="new 0 0 2850.1 3422" xml:space="preserve">
<g>
	<g>
		<path fill="#000000" d="M797.9,1831.9c-92.8,0-167.2-19.4-244-46.9l-31.9-10.6L1163.8,0h536.9l574.1,1589.7l-71.1-28.7
			c-87.9-30.8-161.6-53.6-270.5-54.8c-49.2-0.5-156.1,16-156.1,16L1422.6,446.5L978,1790.6C978,1790.6,881.8,1829.1,797.9,1831.9z"
			/>
	</g>
</g>
<g>
	<path fill="#000000" d="M2434.5,2250.1c0,0-73.4-78.4-184-118.8c-98.7-36-203.9-59.5-317.3-59.5c-154.1,0-358.6,53.2-607.7,158
		c-241.5,101.5-416.3,152-519.5,153.1c-274.4,2.9-412-77.9-412-77.9L0,3422h525L723,2811.1c17.9,0.8,220,13.2,402.9-52.9
		c29.4-8.7,134.8-51.2,360-142.1c108.7-44.5,182.1-72.8,230-88.1c80-23,227.1-57.8,302.5-12.6L2311,3422h539.1L2434.5,2250.1z"/>
</g>
</svg>
